<mxfile host="Electron" modified="2024-03-27T20:35:38.720Z" agent="Mozilla/5.0 (Windows NT 10.0; Win64; x64) AppleWebKit/537.36 (KHTML, like Gecko) draw.io/24.0.4 Chrome/120.0.6099.109 Electron/28.1.0 Safari/537.36" etag="80mkVkvw_f88oDEHjjth" version="24.0.4" type="device">
  <diagram name="PÃ¡gina-1" id="RDinv8P8d8wfcmwiv2I8">
    <mxGraphModel dx="995" dy="687" grid="1" gridSize="10" guides="1" tooltips="1" connect="1" arrows="1" fold="1" page="1" pageScale="1" pageWidth="827" pageHeight="1169" background="#999999" math="0" shadow="0">
      <root>
        <mxCell id="0" />
        <mxCell id="1" parent="0" />
        <mxCell id="qLOr1LEOJIK6eyIxOB5J-18" style="edgeStyle=orthogonalEdgeStyle;rounded=0;orthogonalLoop=1;jettySize=auto;html=1;strokeColor=#23445D;labelBackgroundColor=none;fontColor=default;" edge="1" parent="1" source="qLOr1LEOJIK6eyIxOB5J-2" target="qLOr1LEOJIK6eyIxOB5J-13">
          <mxGeometry relative="1" as="geometry">
            <Array as="points">
              <mxPoint x="340" y="345" />
              <mxPoint x="194" y="345" />
            </Array>
          </mxGeometry>
        </mxCell>
        <mxCell id="qLOr1LEOJIK6eyIxOB5J-36" style="edgeStyle=orthogonalEdgeStyle;rounded=0;orthogonalLoop=1;jettySize=auto;html=1;strokeColor=#23445D;" edge="1" parent="1" source="qLOr1LEOJIK6eyIxOB5J-2" target="qLOr1LEOJIK6eyIxOB5J-31">
          <mxGeometry relative="1" as="geometry" />
        </mxCell>
        <mxCell id="qLOr1LEOJIK6eyIxOB5J-2" value="Biblioteca" style="swimlane;fontStyle=0;childLayout=stackLayout;horizontal=1;startSize=30;horizontalStack=0;resizeParent=1;resizeParentMax=0;resizeLast=0;collapsible=1;marginBottom=0;whiteSpace=wrap;html=1;hachureGap=4;strokeColor=#FFFFFF;fontFamily=Helvetica;fontColor=#FFFFFF;fillColor=#182E3E;labelBackgroundColor=none;" vertex="1" parent="1">
          <mxGeometry x="274" y="140" width="200" height="180" as="geometry" />
        </mxCell>
        <mxCell id="qLOr1LEOJIK6eyIxOB5J-4" value="&amp;lt;&amp;lt;create&amp;gt;&amp;gt; Biblioteca()" style="text;strokeColor=none;fillColor=none;align=left;verticalAlign=middle;spacingLeft=4;spacingRight=4;overflow=hidden;points=[[0,0.5],[1,0.5]];portConstraint=eastwest;rotatable=0;whiteSpace=wrap;html=1;fontFamily=Helvetica;fontColor=#FFFFFF;labelBackgroundColor=none;" vertex="1" parent="qLOr1LEOJIK6eyIxOB5J-2">
          <mxGeometry y="30" width="200" height="30" as="geometry" />
        </mxCell>
        <mxCell id="qLOr1LEOJIK6eyIxOB5J-10" value="+ agregarSocio (socio : Socio)&amp;nbsp;" style="text;strokeColor=none;fillColor=none;align=left;verticalAlign=middle;spacingLeft=4;spacingRight=4;overflow=hidden;points=[[0,0.5],[1,0.5]];portConstraint=eastwest;rotatable=0;whiteSpace=wrap;html=1;fontFamily=Helvetica;fontColor=#FFFFFF;labelBackgroundColor=none;" vertex="1" parent="qLOr1LEOJIK6eyIxOB5J-2">
          <mxGeometry y="60" width="200" height="30" as="geometry" />
        </mxCell>
        <mxCell id="qLOr1LEOJIK6eyIxOB5J-5" value="+ exportarSocio() : String" style="text;strokeColor=none;fillColor=none;align=left;verticalAlign=middle;spacingLeft=4;spacingRight=4;overflow=hidden;points=[[0,0.5],[1,0.5]];portConstraint=eastwest;rotatable=0;whiteSpace=wrap;html=1;fontFamily=Helvetica;fontColor=#FFFFFF;labelBackgroundColor=none;" vertex="1" parent="qLOr1LEOJIK6eyIxOB5J-2">
          <mxGeometry y="90" width="200" height="30" as="geometry" />
        </mxCell>
        <mxCell id="qLOr1LEOJIK6eyIxOB5J-12" value="+ getExporter() : VoorheesExporter" style="text;strokeColor=none;fillColor=none;align=left;verticalAlign=middle;spacingLeft=4;spacingRight=4;overflow=hidden;points=[[0,0.5],[1,0.5]];portConstraint=eastwest;rotatable=0;whiteSpace=wrap;html=1;fontFamily=Helvetica;fontColor=#FFFFFF;labelBackgroundColor=none;" vertex="1" parent="qLOr1LEOJIK6eyIxOB5J-2">
          <mxGeometry y="120" width="200" height="30" as="geometry" />
        </mxCell>
        <mxCell id="qLOr1LEOJIK6eyIxOB5J-11" value="+ setExporter(VoorheesExporter)" style="text;strokeColor=none;fillColor=none;align=left;verticalAlign=middle;spacingLeft=4;spacingRight=4;overflow=hidden;points=[[0,0.5],[1,0.5]];portConstraint=eastwest;rotatable=0;whiteSpace=wrap;html=1;fontFamily=Helvetica;fontColor=#FFFFFF;labelBackgroundColor=none;" vertex="1" parent="qLOr1LEOJIK6eyIxOB5J-2">
          <mxGeometry y="150" width="200" height="30" as="geometry" />
        </mxCell>
        <mxCell id="qLOr1LEOJIK6eyIxOB5J-13" value="Socio" style="swimlane;fontStyle=1;align=center;verticalAlign=top;childLayout=stackLayout;horizontal=1;startSize=26;horizontalStack=0;resizeParent=1;resizeParentMax=0;resizeLast=0;collapsible=1;marginBottom=0;whiteSpace=wrap;html=1;strokeColor=#FFFFFF;fontColor=#FFFFFF;fillColor=#182E3E;labelBackgroundColor=none;" vertex="1" parent="1">
          <mxGeometry x="114" y="370" width="200" height="260" as="geometry" />
        </mxCell>
        <mxCell id="qLOr1LEOJIK6eyIxOB5J-14" value="- nombre : String" style="text;strokeColor=none;fillColor=none;align=left;verticalAlign=top;spacingLeft=4;spacingRight=4;overflow=hidden;rotatable=0;points=[[0,0.5],[1,0.5]];portConstraint=eastwest;whiteSpace=wrap;html=1;fontColor=#FFFFFF;labelBackgroundColor=none;" vertex="1" parent="qLOr1LEOJIK6eyIxOB5J-13">
          <mxGeometry y="26" width="200" height="26" as="geometry" />
        </mxCell>
        <mxCell id="qLOr1LEOJIK6eyIxOB5J-21" value="- legajo : String" style="text;strokeColor=none;fillColor=none;align=left;verticalAlign=top;spacingLeft=4;spacingRight=4;overflow=hidden;rotatable=0;points=[[0,0.5],[1,0.5]];portConstraint=eastwest;whiteSpace=wrap;html=1;fontColor=#FFFFFF;labelBackgroundColor=none;" vertex="1" parent="qLOr1LEOJIK6eyIxOB5J-13">
          <mxGeometry y="52" width="200" height="26" as="geometry" />
        </mxCell>
        <mxCell id="qLOr1LEOJIK6eyIxOB5J-22" value="- email : String" style="text;strokeColor=none;fillColor=none;align=left;verticalAlign=top;spacingLeft=4;spacingRight=4;overflow=hidden;rotatable=0;points=[[0,0.5],[1,0.5]];portConstraint=eastwest;whiteSpace=wrap;html=1;fontColor=#FFFFFF;labelBackgroundColor=none;" vertex="1" parent="qLOr1LEOJIK6eyIxOB5J-13">
          <mxGeometry y="78" width="200" height="26" as="geometry" />
        </mxCell>
        <mxCell id="qLOr1LEOJIK6eyIxOB5J-15" value="" style="line;strokeWidth=1;fillColor=none;align=left;verticalAlign=middle;spacingTop=-1;spacingLeft=3;spacingRight=3;rotatable=0;labelPosition=right;points=[];portConstraint=eastwest;strokeColor=#FFFFFF;fontColor=#FFFFFF;labelBackgroundColor=none;" vertex="1" parent="qLOr1LEOJIK6eyIxOB5J-13">
          <mxGeometry y="104" width="200" height="8" as="geometry" />
        </mxCell>
        <mxCell id="qLOr1LEOJIK6eyIxOB5J-23" value="+ getNombre (): String" style="text;strokeColor=none;fillColor=none;align=left;verticalAlign=top;spacingLeft=4;spacingRight=4;overflow=hidden;rotatable=0;points=[[0,0.5],[1,0.5]];portConstraint=eastwest;whiteSpace=wrap;html=1;fontColor=#FFFFFF;labelBackgroundColor=none;" vertex="1" parent="qLOr1LEOJIK6eyIxOB5J-13">
          <mxGeometry y="112" width="200" height="26" as="geometry" />
        </mxCell>
        <mxCell id="qLOr1LEOJIK6eyIxOB5J-26" value="+ setNombre (nombre: String)" style="text;strokeColor=none;fillColor=none;align=left;verticalAlign=top;spacingLeft=4;spacingRight=4;overflow=hidden;rotatable=0;points=[[0,0.5],[1,0.5]];portConstraint=eastwest;whiteSpace=wrap;html=1;fontColor=#FFFFFF;labelBackgroundColor=none;" vertex="1" parent="qLOr1LEOJIK6eyIxOB5J-13">
          <mxGeometry y="138" width="200" height="22" as="geometry" />
        </mxCell>
        <mxCell id="qLOr1LEOJIK6eyIxOB5J-27" value="+ getEmail (): String" style="text;strokeColor=none;fillColor=none;align=left;verticalAlign=top;spacingLeft=4;spacingRight=4;overflow=hidden;rotatable=0;points=[[0,0.5],[1,0.5]];portConstraint=eastwest;whiteSpace=wrap;html=1;fontColor=#FFFFFF;labelBackgroundColor=none;" vertex="1" parent="qLOr1LEOJIK6eyIxOB5J-13">
          <mxGeometry y="160" width="200" height="26" as="geometry" />
        </mxCell>
        <mxCell id="qLOr1LEOJIK6eyIxOB5J-28" value="+ setEmail(email: String)" style="text;strokeColor=none;fillColor=none;align=left;verticalAlign=top;spacingLeft=4;spacingRight=4;overflow=hidden;rotatable=0;points=[[0,0.5],[1,0.5]];portConstraint=eastwest;whiteSpace=wrap;html=1;fontColor=#FFFFFF;labelBackgroundColor=none;" vertex="1" parent="qLOr1LEOJIK6eyIxOB5J-13">
          <mxGeometry y="186" width="200" height="24" as="geometry" />
        </mxCell>
        <mxCell id="qLOr1LEOJIK6eyIxOB5J-24" value="+ getLegajo (): String" style="text;strokeColor=none;fillColor=none;align=left;verticalAlign=top;spacingLeft=4;spacingRight=4;overflow=hidden;rotatable=0;points=[[0,0.5],[1,0.5]];portConstraint=eastwest;whiteSpace=wrap;html=1;fontColor=#FFFFFF;labelBackgroundColor=none;" vertex="1" parent="qLOr1LEOJIK6eyIxOB5J-13">
          <mxGeometry y="210" width="200" height="26" as="geometry" />
        </mxCell>
        <mxCell id="qLOr1LEOJIK6eyIxOB5J-29" value="+ setLegajo (legajo: String)" style="text;strokeColor=none;fillColor=none;align=left;verticalAlign=top;spacingLeft=4;spacingRight=4;overflow=hidden;rotatable=0;points=[[0,0.5],[1,0.5]];portConstraint=eastwest;whiteSpace=wrap;html=1;fontColor=#FFFFFF;labelBackgroundColor=none;" vertex="1" parent="qLOr1LEOJIK6eyIxOB5J-13">
          <mxGeometry y="236" width="200" height="24" as="geometry" />
        </mxCell>
        <mxCell id="qLOr1LEOJIK6eyIxOB5J-19" value="0..*&amp;nbsp;&lt;div&gt;- socios&lt;/div&gt;" style="text;html=1;align=center;verticalAlign=middle;resizable=0;points=[];autosize=1;strokeColor=none;fillColor=none;fontColor=#FFFFFF;labelBackgroundColor=none;" vertex="1" parent="1">
          <mxGeometry x="130" y="313" width="60" height="40" as="geometry" />
        </mxCell>
        <mxCell id="qLOr1LEOJIK6eyIxOB5J-31" value="VoorheesExporter" style="swimlane;fontStyle=1;align=center;verticalAlign=top;childLayout=stackLayout;horizontal=1;startSize=26;horizontalStack=0;resizeParent=1;resizeParentMax=0;resizeLast=0;collapsible=1;marginBottom=0;whiteSpace=wrap;html=1;strokeColor=#FFFFFF;fontColor=#FFFFFF;fillColor=#182E3E;" vertex="1" parent="1">
          <mxGeometry x="350" y="370" width="200" height="76" as="geometry" />
        </mxCell>
        <mxCell id="qLOr1LEOJIK6eyIxOB5J-32" value="- exportar(socio : Socio) : String" style="text;strokeColor=none;fillColor=none;align=left;verticalAlign=top;spacingLeft=4;spacingRight=4;overflow=hidden;rotatable=0;points=[[0,0.5],[1,0.5]];portConstraint=eastwest;whiteSpace=wrap;html=1;fontColor=#FFFFFF;" vertex="1" parent="qLOr1LEOJIK6eyIxOB5J-31">
          <mxGeometry y="26" width="200" height="24" as="geometry" />
        </mxCell>
        <mxCell id="qLOr1LEOJIK6eyIxOB5J-34" value="+ exportar( socios: List): String" style="text;strokeColor=none;fillColor=none;align=left;verticalAlign=top;spacingLeft=4;spacingRight=4;overflow=hidden;rotatable=0;points=[[0,0.5],[1,0.5]];portConstraint=eastwest;whiteSpace=wrap;html=1;fontColor=#FFFFFF;" vertex="1" parent="qLOr1LEOJIK6eyIxOB5J-31">
          <mxGeometry y="50" width="200" height="26" as="geometry" />
        </mxCell>
        <mxCell id="qLOr1LEOJIK6eyIxOB5J-37" value="- exporter" style="text;html=1;align=center;verticalAlign=middle;resizable=0;points=[];autosize=1;strokeColor=none;fillColor=none;fontColor=#FFFFFF;" vertex="1" parent="1">
          <mxGeometry x="450" y="328" width="70" height="30" as="geometry" />
        </mxCell>
      </root>
    </mxGraphModel>
  </diagram>
</mxfile>
